<svg width="291" height="295" viewBox="0 0 291 295" fill="none" xmlns="http://www.w3.org/2000/svg">
<rect x="131" width="15" height="15" fill="black"/>
<rect x="116" width="15" height="15" fill="black"/>
<rect x="146" width="14" height="15" fill="black"/>
<rect x="160" width="15" height="15" fill="black"/>
<rect x="131" y="15" width="15" height="15" fill="black"/>
<rect x="160" y="15" width="15" height="15" fill="black"/>
<rect x="15" y="89" width="14" height="14" fill="black"/>
<rect x="276" y="89" width="15" height="14" fill="black"/>
<rect x="29" y="74" width="15" height="15" fill="black"/>
<rect x="44" y="59" width="14" height="15" fill="black"/>
<rect x="58" y="44" width="15" height="15" fill="black"/>
<rect x="73" y="30" width="14" height="14" fill="black"/>
<rect x="87" y="15" width="15" height="15" fill="black"/>
<rect x="102" y="15" width="14" height="15" fill="black"/>
<rect x="15" y="74" width="14" height="15" fill="black"/>
<rect x="29" y="59" width="15" height="15" fill="black"/>
<rect x="44" y="44" width="14" height="15" fill="black"/>
<rect x="58" y="30" width="15" height="14" fill="black"/>
<rect x="73" y="15" width="14" height="15" fill="black"/>
<rect x="15" y="89" width="14" height="14" fill="black"/>
<rect x="276" y="89" width="15" height="14" fill="black"/>
<rect x="29" y="74" width="15" height="15" fill="black"/>
<rect x="44" y="59" width="14" height="15" fill="black"/>
<rect x="58" y="44" width="15" height="15" fill="black"/>
<rect x="73" y="30" width="14" height="14" fill="black"/>
<rect x="87" y="15" width="15" height="15" fill="black"/>
<rect x="102" y="15" width="14" height="15" fill="black"/>
<rect x="15" y="74" width="14" height="15" fill="black"/>
<rect x="262" y="74" width="14" height="15" fill="black"/>
<rect x="247" y="59" width="15" height="15" fill="black"/>
<rect x="233" y="44" width="14" height="15" fill="black"/>
<rect x="218" y="30" width="15" height="14" fill="black"/>
<rect x="204" y="15" width="14" height="15" fill="black"/>
<rect x="189" width="15" height="15" fill="black"/>
<rect x="29" y="59" width="15" height="15" fill="black"/>
<rect x="44" y="44" width="14" height="15" fill="black"/>
<rect x="58" y="30" width="15" height="14" fill="black"/>
<rect x="73" y="15" width="14" height="15" fill="black"/>
<rect x="15" y="103" width="14" height="15" fill="black"/>
<rect x="276" y="103" width="15" height="15" fill="black"/>
<rect x="29" y="89" width="15" height="14" fill="black"/>
<rect x="44" y="74" width="14" height="15" fill="black"/>
<rect x="58" y="59" width="15" height="15" fill="black"/>
<rect x="73" y="44" width="14" height="15" fill="black"/>
<rect x="87" y="30" width="15" height="14" fill="black"/>
<rect y="89" width="15" height="14" fill="black"/>
<rect x="262" y="89" width="14" height="14" fill="black"/>
<rect x="247" y="74" width="15" height="15" fill="black"/>
<rect x="233" y="59" width="14" height="15" fill="black"/>
<rect x="218" y="44" width="15" height="15" fill="black"/>
<rect x="204" y="30" width="14" height="14" fill="black"/>
<rect x="189" y="15" width="15" height="15" fill="black"/>
<rect x="15" y="103" width="14" height="15" fill="black"/>
<rect x="276" y="103" width="15" height="15" fill="black"/>
<rect x="29" y="89" width="15" height="14" fill="black"/>
<rect x="44" y="74" width="14" height="15" fill="black"/>
<rect x="58" y="59" width="15" height="15" fill="black"/>
<rect x="73" y="44" width="14" height="15" fill="black"/>
<rect x="87" y="30" width="15" height="14" fill="black"/>
<rect y="103" width="15" height="15" fill="black"/>
<rect x="262" y="103" width="14" height="15" fill="black"/>
<rect x="247" y="89" width="15" height="14" fill="black"/>
<rect x="233" y="74" width="14" height="15" fill="black"/>
<rect x="218" y="59" width="15" height="15" fill="black"/>
<rect x="204" y="44" width="14" height="15" fill="black"/>
<rect x="189" y="30" width="15" height="14" fill="black"/>
<rect x="15" y="118" width="14" height="15" fill="black"/>
<rect x="276" y="118" width="15" height="15" fill="black"/>
<rect x="15" y="118" width="14" height="15" fill="black"/>
<rect x="276" y="118" width="15" height="15" fill="black"/>
<rect y="118" width="15" height="15" fill="black"/>
<rect x="262" y="118" width="14" height="15" fill="black"/>
<rect x="15" y="133" width="14" height="15" fill="black"/>
<rect x="276" y="133" width="15" height="15" fill="black"/>
<rect y="133" width="15" height="15" fill="black"/>
<rect x="262" y="133" width="14" height="15" fill="black"/>
<rect x="15" y="148" width="14" height="14" fill="black"/>
<rect x="276" y="148" width="15" height="14" fill="black"/>
<rect y="148" width="15" height="14" fill="black"/>
<rect x="262" y="148" width="14" height="14" fill="black"/>
<rect x="15" y="162" width="14" height="15" fill="black"/>
<rect x="276" y="162" width="15" height="15" fill="black"/>
<rect y="162" width="15" height="15" fill="black"/>
<rect x="262" y="162" width="14" height="15" fill="black"/>
<rect x="15" y="177" width="14" height="15" fill="black"/>
<rect x="276" y="177" width="15" height="15" fill="black"/>
<rect x="29" y="192" width="15" height="15" fill="black"/>
<rect x="44" y="207" width="14" height="14" fill="black"/>
<rect x="58" y="221" width="15" height="15" fill="black"/>
<rect x="73" y="236" width="14" height="15" fill="black"/>
<rect x="87" y="251" width="15" height="15" fill="black"/>
<rect y="177" width="15" height="15" fill="black"/>
<rect x="262" y="177" width="14" height="15" fill="black"/>
<rect x="247" y="192" width="15" height="15" fill="black"/>
<rect x="233" y="207" width="14" height="14" fill="black"/>
<rect x="218" y="221" width="15" height="15" fill="black"/>
<rect x="204" y="236" width="14" height="15" fill="black"/>
<rect x="189" y="251" width="15" height="15" fill="black"/>
<rect x="15" y="192" width="14" height="15" fill="black"/>
<rect x="276" y="192" width="15" height="15" fill="black"/>
<rect x="29" y="207" width="15" height="14" fill="black"/>
<rect x="44" y="221" width="14" height="15" fill="black"/>
<rect x="58" y="236" width="15" height="15" fill="black"/>
<rect x="73" y="251" width="14" height="15" fill="black"/>
<rect x="87" y="266" width="15" height="14" fill="black"/>
<rect x="15" y="207" width="14" height="14" fill="black"/>
<rect x="262" y="207" width="14" height="14" fill="black"/>
<rect x="247" y="221" width="15" height="15" fill="black"/>
<rect x="233" y="236" width="14" height="15" fill="black"/>
<rect x="218" y="251" width="15" height="15" fill="black"/>
<rect x="204" y="266" width="14" height="14" fill="black"/>
<rect x="189" y="280" width="15" height="15" fill="black"/>
<rect x="29" y="221" width="15" height="15" fill="black"/>
<rect x="44" y="236" width="14" height="15" fill="black"/>
<rect x="58" y="251" width="15" height="15" fill="black"/>
<rect x="73" y="266" width="14" height="14" fill="black"/>
<rect x="87" y="280" width="15" height="15" fill="black"/>
<rect y="192" width="15" height="15" fill="black"/>
<rect x="262" y="192" width="14" height="15" fill="black"/>
<rect x="247" y="207" width="15" height="14" fill="black"/>
<rect x="233" y="221" width="14" height="15" fill="black"/>
<rect x="218" y="236" width="15" height="15" fill="black"/>
<rect x="204" y="251" width="14" height="15" fill="black"/>
<rect x="189" y="266" width="15" height="14" fill="black"/>
<rect x="102" y="266" width="14" height="14" fill="black"/>
<rect x="102" y="280" width="14" height="15" fill="black"/>
<rect x="116" y="266" width="15" height="14" fill="black"/>
<rect x="116" y="280" width="15" height="15" fill="black"/>
<rect x="131" y="266" width="15" height="14" fill="black"/>
<rect x="131" y="280" width="15" height="15" fill="black"/>
<rect x="146" y="266" width="14" height="14" fill="black"/>
<rect x="146" y="280" width="14" height="15" fill="black"/>
<rect x="160" y="266" width="15" height="14" fill="black"/>
<rect x="160" y="280" width="15" height="15" fill="black"/>
<rect x="175" y="266" width="14" height="14" fill="black"/>
<rect x="175" y="280" width="14" height="15" fill="black"/>
<rect x="175" y="15" width="14" height="15" fill="black"/>
<rect x="146" y="15" width="14" height="15" fill="black"/>
<rect x="175" y="15" width="14" height="15" fill="black"/>
<rect x="116" y="15" width="15" height="15" fill="black"/>
<rect x="102" width="14" height="15" fill="black"/>
<rect x="87" width="15" height="15" fill="black"/>
<rect x="175" width="14" height="15" fill="black"/>
<rect x="204" y="133" width="14" height="15" transform="rotate(90 204 133)" fill="black"/>
<rect x="189" y="133" width="14" height="14" transform="rotate(90 189 133)" fill="black"/>
<rect x="175" y="133" width="14" height="15" transform="rotate(90 175 133)" fill="black"/>
<rect x="160" y="133" width="14" height="15" transform="rotate(90 160 133)" fill="black"/>
<rect x="146" y="133" width="14" height="15" transform="rotate(90 146 133)" fill="black"/>
<rect x="131" y="133" width="14" height="15" transform="rotate(90 131 133)" fill="black"/>
<rect x="116" y="133" width="14" height="14" transform="rotate(90 116 133)" fill="black"/>
<rect x="102" y="133" width="14" height="15" transform="rotate(90 102 133)" fill="black"/>
<rect x="204" y="148" width="14" height="15" transform="rotate(90 204 148)" fill="black"/>
<rect x="189" y="148" width="14" height="14" transform="rotate(90 189 148)" fill="black"/>
<rect x="175" y="148" width="14" height="15" transform="rotate(90 175 148)" fill="black"/>
<rect x="160" y="148" width="14" height="15" transform="rotate(90 160 148)" fill="black"/>
<rect x="146" y="148" width="14" height="15" transform="rotate(90 146 148)" fill="black"/>
<rect x="131" y="148" width="14" height="15" transform="rotate(90 131 148)" fill="black"/>
<rect x="116" y="148" width="14" height="14" transform="rotate(90 116 148)" fill="black"/>
<rect x="102" y="148" width="14" height="15" transform="rotate(90 102 148)" fill="black"/>
<rect x="116" y="162" width="15" height="14" transform="rotate(90 116 162)" fill="black"/>
<rect x="116" y="118" width="15" height="14" transform="rotate(90 116 118)" fill="black"/>
<rect x="131" y="103" width="15" height="15" transform="rotate(90 131 103)" fill="black"/>
<rect x="146" y="89" width="14" height="15" transform="rotate(90 146 89)" fill="black"/>
<rect x="146" y="177" width="15" height="15" transform="rotate(90 146 177)" fill="black"/>
<rect x="146" y="162" width="15" height="15" transform="rotate(90 146 162)" fill="black"/>
<rect x="146" y="118" width="15" height="15" transform="rotate(90 146 118)" fill="black"/>
<rect x="160" y="103" width="15" height="15" transform="rotate(90 160 103)" fill="black"/>
<rect x="160" y="192" width="14" height="15" transform="rotate(90 160 192)" fill="black"/>
<rect x="131" y="162" width="15" height="15" transform="rotate(90 131 162)" fill="black"/>
<rect x="131" y="118" width="15" height="15" transform="rotate(90 131 118)" fill="black"/>
<rect x="146" y="103" width="15" height="15" transform="rotate(90 146 103)" fill="black"/>
<rect x="160" y="89" width="14" height="15" transform="rotate(90 160 89)" fill="black"/>
<rect x="160" y="177" width="15" height="15" transform="rotate(90 160 177)" fill="black"/>
<rect x="131" y="177" width="15" height="15" transform="rotate(90 131 177)" fill="black"/>
<rect x="146" y="192" width="14" height="15" transform="rotate(90 146 192)" fill="black"/>
</svg>
