<svg width="308" height="321" viewBox="0 0 308 321" fill="none" xmlns="http://www.w3.org/2000/svg">
<rect width="17" height="18" fill="black"/>
<rect x="34" width="17" height="18" fill="black"/>
<rect x="68" width="18" height="18" fill="black"/>
<rect x="103" width="17" height="18" fill="black"/>
<rect x="103" y="36" width="17" height="17" fill="black"/>
<rect x="103" y="71" width="17" height="18" fill="black"/>
<rect x="103" y="107" width="17" height="18" fill="black"/>
<rect x="68" y="107" width="18" height="18" fill="black"/>
<rect x="34" y="107" width="17" height="18" fill="black"/>
<rect y="107" width="17" height="18" fill="black"/>
<rect y="71" width="17" height="18" fill="black"/>
<rect y="36" width="17" height="17" fill="black"/>
<rect x="171" width="17" height="18" fill="black"/>
<rect x="205" width="17" height="18" fill="black"/>
<rect x="240" width="17" height="18" fill="black"/>
<rect x="274" width="17" height="18" fill="black"/>
<rect x="274" y="36" width="17" height="17" fill="black"/>
<rect x="274" y="71" width="17" height="18" fill="black"/>
<rect x="274" y="107" width="17" height="18" fill="black"/>
<rect x="240" y="107" width="17" height="18" fill="black"/>
<rect x="205" y="107" width="17" height="18" fill="black"/>
<rect x="171" y="107" width="17" height="18" fill="black"/>
<rect x="171" y="71" width="17" height="18" fill="black"/>
<rect x="171" y="36" width="17" height="17" fill="black"/>
<rect x="171" y="178" width="17" height="18" fill="black"/>
<rect x="171" y="214" width="17" height="18" fill="black"/>
<rect x="171" y="250" width="17" height="18" fill="black"/>
<rect x="171" y="285" width="17" height="18" fill="black"/>
<rect x="205" y="285" width="17" height="18" fill="black"/>
<rect x="240" y="285" width="17" height="18" fill="black"/>
<rect x="274" y="285" width="17" height="18" fill="black"/>
<rect x="274" y="250" width="17" height="18" fill="black"/>
<rect x="274" y="214" width="17" height="18" fill="black"/>
<rect x="274" y="178" width="17" height="18" fill="black"/>
<rect x="240" y="178" width="17" height="18" fill="black"/>
<rect x="205" y="178" width="17" height="18" fill="black"/>
<rect x="103" y="178" width="17" height="18" fill="black"/>
<rect x="68" y="178" width="18" height="18" fill="black"/>
<rect x="34" y="178" width="17" height="18" fill="black"/>
<rect y="178" width="17" height="18" fill="black"/>
<rect y="214" width="17" height="18" fill="black"/>
<rect y="250" width="17" height="18" fill="black"/>
<rect y="285" width="17" height="18" fill="black"/>
<rect x="34" y="285" width="17" height="18" fill="black"/>
<rect x="68" y="285" width="18" height="18" fill="black"/>
<rect x="103" y="285" width="17" height="18" fill="black"/>
<rect x="103" y="250" width="17" height="18" fill="black"/>
<rect x="103" y="214" width="17" height="18" fill="black"/>
<rect x="17" width="17" height="18" fill="black"/>
<rect x="51" width="17" height="18" fill="black"/>
<rect x="86" width="17" height="18" fill="black"/>
<rect x="120" width="17" height="18" fill="black"/>
<rect x="120" y="36" width="17" height="17" fill="black"/>
<rect x="120" y="71" width="17" height="18" fill="black"/>
<rect x="120" y="107" width="17" height="18" fill="black"/>
<rect x="86" y="107" width="17" height="18" fill="black"/>
<rect x="51" y="107" width="17" height="18" fill="black"/>
<rect x="17" y="107" width="17" height="18" fill="black"/>
<rect x="17" y="71" width="17" height="18" fill="black"/>
<rect x="17" y="36" width="17" height="17" fill="black"/>
<rect x="188" width="17" height="18" fill="black"/>
<rect x="222" width="18" height="18" fill="black"/>
<rect x="257" width="17" height="18" fill="black"/>
<rect x="291" width="17" height="18" fill="black"/>
<rect x="291" y="36" width="17" height="17" fill="black"/>
<rect x="291" y="71" width="17" height="18" fill="black"/>
<rect x="291" y="107" width="17" height="18" fill="black"/>
<rect x="257" y="107" width="17" height="18" fill="black"/>
<rect x="222" y="107" width="18" height="18" fill="black"/>
<rect x="188" y="107" width="17" height="18" fill="black"/>
<rect x="188" y="71" width="17" height="18" fill="black"/>
<rect x="188" y="36" width="17" height="17" fill="black"/>
<rect x="188" y="178" width="17" height="18" fill="black"/>
<rect x="188" y="214" width="17" height="18" fill="black"/>
<rect x="188" y="250" width="17" height="18" fill="black"/>
<rect x="188" y="285" width="17" height="18" fill="black"/>
<rect x="222" y="285" width="18" height="18" fill="black"/>
<rect x="257" y="285" width="17" height="18" fill="black"/>
<rect x="291" y="285" width="17" height="18" fill="black"/>
<rect x="291" y="250" width="17" height="18" fill="black"/>
<rect x="291" y="214" width="17" height="18" fill="black"/>
<rect x="291" y="178" width="17" height="18" fill="black"/>
<rect x="257" y="178" width="17" height="18" fill="black"/>
<rect x="222" y="178" width="18" height="18" fill="black"/>
<rect x="120" y="178" width="17" height="18" fill="black"/>
<rect x="86" y="178" width="17" height="18" fill="black"/>
<rect x="51" y="178" width="17" height="18" fill="black"/>
<rect x="17" y="178" width="17" height="18" fill="black"/>
<rect x="17" y="214" width="17" height="18" fill="black"/>
<rect x="17" y="250" width="17" height="18" fill="black"/>
<rect x="17" y="285" width="17" height="18" fill="black"/>
<rect x="51" y="285" width="17" height="18" fill="black"/>
<rect x="86" y="285" width="17" height="18" fill="black"/>
<rect x="120" y="285" width="17" height="18" fill="black"/>
<rect x="120" y="250" width="17" height="18" fill="black"/>
<rect x="120" y="214" width="17" height="18" fill="black"/>
<rect y="18" width="17" height="18" fill="black"/>
<rect x="34" y="18" width="17" height="18" fill="black"/>
<rect x="68" y="18" width="18" height="18" fill="black"/>
<rect x="103" y="18" width="17" height="18" fill="black"/>
<rect x="103" y="54" width="17" height="17" fill="black"/>
<rect x="103" y="89" width="17" height="18" fill="black"/>
<rect x="103" y="125" width="17" height="18" fill="black"/>
<rect x="68" y="125" width="18" height="18" fill="black"/>
<rect x="34" y="125" width="17" height="18" fill="black"/>
<rect y="125" width="17" height="18" fill="black"/>
<rect y="89" width="17" height="18" fill="black"/>
<rect y="54" width="17" height="17" fill="black"/>
<rect x="171" y="18" width="17" height="18" fill="black"/>
<rect x="205" y="18" width="17" height="18" fill="black"/>
<rect x="240" y="18" width="17" height="18" fill="black"/>
<rect x="274" y="18" width="17" height="18" fill="black"/>
<rect x="274" y="54" width="17" height="17" fill="black"/>
<rect x="274" y="89" width="17" height="18" fill="black"/>
<rect x="274" y="125" width="17" height="18" fill="black"/>
<rect x="240" y="125" width="17" height="18" fill="black"/>
<rect x="205" y="125" width="17" height="18" fill="black"/>
<rect x="171" y="125" width="17" height="18" fill="black"/>
<rect x="171" y="89" width="17" height="18" fill="black"/>
<rect x="171" y="54" width="17" height="17" fill="black"/>
<rect x="171" y="196" width="17" height="18" fill="black"/>
<rect x="171" y="232" width="17" height="18" fill="black"/>
<rect x="171" y="267" width="17" height="18" fill="black"/>
<rect x="171" y="303" width="17" height="18" fill="black"/>
<rect x="205" y="303" width="17" height="18" fill="black"/>
<rect x="240" y="303" width="17" height="18" fill="black"/>
<rect x="274" y="303" width="17" height="18" fill="black"/>
<rect x="274" y="267" width="17" height="18" fill="black"/>
<rect x="274" y="232" width="17" height="18" fill="black"/>
<rect x="274" y="196" width="17" height="18" fill="black"/>
<rect x="240" y="196" width="17" height="18" fill="black"/>
<rect x="205" y="196" width="17" height="18" fill="black"/>
<rect x="103" y="196" width="17" height="18" fill="black"/>
<rect x="68" y="196" width="18" height="18" fill="black"/>
<rect x="34" y="196" width="17" height="18" fill="black"/>
<rect y="196" width="17" height="18" fill="black"/>
<rect y="232" width="17" height="18" fill="black"/>
<rect y="267" width="17" height="18" fill="black"/>
<rect y="303" width="17" height="18" fill="black"/>
<rect x="34" y="303" width="17" height="18" fill="black"/>
<rect x="68" y="303" width="18" height="18" fill="black"/>
<rect x="103" y="303" width="17" height="18" fill="black"/>
<rect x="103" y="267" width="17" height="18" fill="black"/>
<rect x="103" y="232" width="17" height="18" fill="black"/>
<rect x="17" y="18" width="17" height="18" fill="black"/>
<rect x="51" y="18" width="17" height="18" fill="black"/>
<rect x="86" y="18" width="17" height="18" fill="black"/>
<rect x="120" y="18" width="17" height="18" fill="black"/>
<rect x="120" y="54" width="17" height="17" fill="black"/>
<rect x="120" y="89" width="17" height="18" fill="black"/>
<rect x="120" y="125" width="17" height="18" fill="black"/>
<rect x="86" y="125" width="17" height="18" fill="black"/>
<rect x="51" y="125" width="17" height="18" fill="black"/>
<rect x="17" y="125" width="17" height="18" fill="black"/>
<rect x="17" y="89" width="17" height="18" fill="black"/>
<rect x="17" y="54" width="17" height="17" fill="black"/>
<rect x="188" y="18" width="17" height="18" fill="black"/>
<rect x="222" y="18" width="18" height="18" fill="black"/>
<rect x="257" y="18" width="17" height="18" fill="black"/>
<rect x="291" y="18" width="17" height="18" fill="black"/>
<rect x="291" y="54" width="17" height="17" fill="black"/>
<rect x="291" y="89" width="17" height="18" fill="black"/>
<rect x="291" y="125" width="17" height="18" fill="black"/>
<rect x="257" y="125" width="17" height="18" fill="black"/>
<rect x="222" y="125" width="18" height="18" fill="black"/>
<rect x="188" y="125" width="17" height="18" fill="black"/>
<rect x="188" y="89" width="17" height="18" fill="black"/>
<rect x="188" y="54" width="17" height="17" fill="black"/>
<rect x="188" y="196" width="17" height="18" fill="black"/>
<rect x="188" y="232" width="17" height="18" fill="black"/>
<rect x="188" y="267" width="17" height="18" fill="black"/>
<rect x="188" y="303" width="17" height="18" fill="black"/>
<rect x="222" y="303" width="18" height="18" fill="black"/>
<rect x="257" y="303" width="17" height="18" fill="black"/>
<rect x="291" y="303" width="17" height="18" fill="black"/>
<rect x="291" y="267" width="17" height="18" fill="black"/>
<rect x="291" y="232" width="17" height="18" fill="black"/>
<rect x="291" y="196" width="17" height="18" fill="black"/>
<rect x="257" y="196" width="17" height="18" fill="black"/>
<rect x="222" y="196" width="18" height="18" fill="black"/>
<rect x="120" y="196" width="17" height="18" fill="black"/>
<rect x="86" y="196" width="17" height="18" fill="black"/>
<rect x="51" y="196" width="17" height="18" fill="black"/>
<rect x="17" y="196" width="17" height="18" fill="black"/>
<rect x="17" y="232" width="17" height="18" fill="black"/>
<rect x="17" y="267" width="17" height="18" fill="black"/>
<rect x="17" y="303" width="17" height="18" fill="black"/>
<rect x="51" y="303" width="17" height="18" fill="black"/>
<rect x="86" y="303" width="17" height="18" fill="black"/>
<rect x="120" y="303" width="17" height="18" fill="black"/>
<rect x="120" y="267" width="17" height="18" fill="black"/>
<rect x="120" y="232" width="17" height="18" fill="black"/>
</svg>
