<svg width="250" height="322" viewBox="0 0 250 322" fill="none" xmlns="http://www.w3.org/2000/svg">
<mask id="path-1-inside-1_22_975" fill="white">
<path fill-rule="evenodd" clip-rule="evenodd" d="M142.857 0H125H107.143H89.2857H71.4286V17.8571H53.5714V35.7143H35.7143V53.5714V71.4286V89.2857V107.143V125V142.857H53.5714V160.714H71.4286V178.571H89.2857H107.143H125H142.857H160.714H178.571V160.714H196.429V142.857H214.286V125V107.143V89.2857V71.4286V53.5714V35.7143H196.429V17.8571H178.571V0H160.714H142.857ZM89.2857 142.857H107.143H125H142.857H160.714V125H178.571V107.143V89.2857V71.4286V53.5714H160.714L160.714 35.7143H142.857H125H107.143L89.2857 35.7143V53.5714H71.4286V71.4286V89.2857V107.143V125H89.2857L89.2857 142.857ZM17.8571 321.429H0V303.571V285.714V267.857V250V232.143V214.286V196.429H17.8571H35.7143H53.5714H71.4286H89.2857H107.143H125H142.857H160.714H178.571H196.429H214.286H232.143H250V214.286V232.143V250V267.857V285.714V303.571V321.429H232.143H214.286V303.571V285.714V267.857V250V232.143H196.429H178.571H160.714H142.857H125H107.143H89.2857H71.4286H53.5714L35.7143 232.143V250V267.857V285.714V303.571V321.429H17.8571Z"/>
</mask>
<path fill-rule="evenodd" clip-rule="evenodd" d="M142.857 0H125H107.143H89.2857H71.4286V17.8571H53.5714V35.7143H35.7143V53.5714V71.4286V89.2857V107.143V125V142.857H53.5714V160.714H71.4286V178.571H89.2857H107.143H125H142.857H160.714H178.571V160.714H196.429V142.857H214.286V125V107.143V89.2857V71.4286V53.5714V35.7143H196.429V17.8571H178.571V0H160.714H142.857ZM89.2857 142.857H107.143H125H142.857H160.714V125H178.571V107.143V89.2857V71.4286V53.5714H160.714L160.714 35.7143H142.857H125H107.143L89.2857 35.7143V53.5714H71.4286V71.4286V89.2857V107.143V125H89.2857L89.2857 142.857ZM17.8571 321.429H0V303.571V285.714V267.857V250V232.143V214.286V196.429H17.8571H35.7143H53.5714H71.4286H89.2857H107.143H125H142.857H160.714H178.571H196.429H214.286H232.143H250V214.286V232.143V250V267.857V285.714V303.571V321.429H232.143H214.286V303.571V285.714V267.857V250V232.143H196.429H178.571H160.714H142.857H125H107.143H89.2857H71.4286H53.5714L35.7143 232.143V250V267.857V285.714V303.571V321.429H17.8571Z" fill="black"/>
<path d="M71.4286 0V-1H70.4286V0H71.4286ZM71.4286 17.8571V18.8571H72.4286V17.8571H71.4286ZM53.5714 17.8571V16.8571H52.5714V17.8571H53.5714ZM53.5714 35.7143V36.7143H54.5714V35.7143H53.5714ZM35.7143 35.7143V34.7143H34.7143V35.7143H35.7143ZM35.7143 142.857H34.7143V143.857H35.7143V142.857ZM53.5714 142.857H54.5714V141.857H53.5714V142.857ZM53.5714 160.714H52.5714V161.714H53.5714V160.714ZM71.4286 160.714H72.4286V159.714H71.4286V160.714ZM71.4286 178.571H70.4286V179.571H71.4286V178.571ZM178.571 178.571V179.571H179.571V178.571H178.571ZM178.571 160.714V159.714H177.571V160.714H178.571ZM196.429 160.714V161.714H197.429V160.714H196.429ZM196.429 142.857V141.857H195.429V142.857H196.429ZM214.286 142.857V143.857H215.286V142.857H214.286ZM214.286 35.7143H215.286V34.7143H214.286V35.7143ZM196.429 35.7143H195.429V36.7143H196.429V35.7143ZM196.429 17.8571H197.429V16.8571H196.429V17.8571ZM178.571 17.8571H177.571V18.8571H178.571V17.8571ZM178.571 0H179.571V-1H178.571V0ZM89.2857 142.857L88.2857 142.857L88.2857 143.857H89.2857V142.857ZM160.714 142.857V143.857H161.714V142.857H160.714ZM160.714 125V124H159.714V125H160.714ZM178.571 125V126H179.571V125H178.571ZM178.571 53.5714H179.571V52.5714H178.571V53.5714ZM160.714 53.5714L159.714 53.5714L159.714 54.5714H160.714V53.5714ZM160.714 35.7143L161.714 35.7143L161.714 34.7143H160.714V35.7143ZM107.143 35.7143L107.143 34.7143L107.143 34.7143L107.143 35.7143ZM89.2857 35.7143L89.2857 34.7143L88.2857 34.7143V35.7143H89.2857ZM89.2857 53.5714V54.5714H90.2857V53.5714H89.2857ZM71.4286 53.5714V52.5714H70.4286V53.5714H71.4286ZM71.4286 125H70.4286V126H71.4286V125ZM89.2857 125L90.2857 125L90.2857 124H89.2857V125ZM0 321.429H-1V322.429H0V321.429ZM0 196.429V195.429H-1V196.429H0ZM250 196.429H251V195.429H250V196.429ZM250 321.429V322.429H251V321.429H250ZM214.286 321.429H213.286V322.429H214.286V321.429ZM214.286 232.143H215.286V231.143H214.286V232.143ZM53.5714 232.143L53.5714 233.143H53.5714V232.143ZM35.7143 232.143L35.7143 231.143L34.7143 231.143V232.143H35.7143ZM35.7143 321.429V322.429H36.7143V321.429H35.7143ZM125 1H142.857V-1H125V1ZM107.143 1H125V-1H107.143V1ZM89.2857 1H107.143V-1H89.2857V1ZM71.4286 1H89.2857V-1H71.4286V1ZM72.4286 17.8571V0H70.4286V17.8571H72.4286ZM53.5714 18.8571H71.4286V16.8571H53.5714V18.8571ZM54.5714 35.7143V17.8571H52.5714V35.7143H54.5714ZM35.7143 36.7143H53.5714V34.7143H35.7143V36.7143ZM36.7143 53.5714V35.7143H34.7143V53.5714H36.7143ZM36.7143 71.4286V53.5714H34.7143V71.4286H36.7143ZM36.7143 89.2857V71.4286H34.7143V89.2857H36.7143ZM36.7143 107.143V89.2857H34.7143V107.143H36.7143ZM36.7143 125V107.143H34.7143V125H36.7143ZM36.7143 142.857V125H34.7143V142.857H36.7143ZM53.5714 141.857H35.7143V143.857H53.5714V141.857ZM54.5714 160.714V142.857H52.5714V160.714H54.5714ZM71.4286 159.714H53.5714V161.714H71.4286V159.714ZM72.4286 178.571V160.714H70.4286V178.571H72.4286ZM89.2857 177.571H71.4286V179.571H89.2857V177.571ZM107.143 177.571H89.2857V179.571H107.143V177.571ZM125 177.571H107.143V179.571H125V177.571ZM142.857 177.571H125V179.571H142.857V177.571ZM160.714 177.571H142.857V179.571H160.714V177.571ZM178.571 177.571H160.714V179.571H178.571V177.571ZM177.571 160.714V178.571H179.571V160.714H177.571ZM196.429 159.714H178.571V161.714H196.429V159.714ZM195.429 142.857V160.714H197.429V142.857H195.429ZM214.286 141.857H196.429V143.857H214.286V141.857ZM213.286 125V142.857H215.286V125H213.286ZM213.286 107.143V125H215.286V107.143H213.286ZM213.286 89.2857V107.143H215.286V89.2857H213.286ZM213.286 71.4286V89.2857H215.286V71.4286H213.286ZM213.286 53.5714V71.4286H215.286V53.5714H213.286ZM213.286 35.7143V53.5714H215.286V35.7143H213.286ZM196.429 36.7143H214.286V34.7143H196.429V36.7143ZM195.429 17.8571V35.7143H197.429V17.8571H195.429ZM178.571 18.8571H196.429V16.8571H178.571V18.8571ZM177.571 0V17.8571H179.571V0H177.571ZM160.714 1H178.571V-1H160.714V1ZM142.857 1H160.714V-1H142.857V1ZM89.2857 143.857H107.143V141.857H89.2857V143.857ZM107.143 143.857H125V141.857H107.143V143.857ZM125 143.857H142.857V141.857H125V143.857ZM142.857 143.857H160.714V141.857H142.857V143.857ZM161.714 142.857V125H159.714V142.857H161.714ZM160.714 126H178.571V124H160.714V126ZM179.571 125V107.143H177.571V125H179.571ZM179.571 107.143V89.2857H177.571V107.143H179.571ZM179.571 89.2857V71.4286H177.571V89.2857H179.571ZM179.571 71.4286V53.5714H177.571V71.4286H179.571ZM178.571 52.5714H160.714V54.5714H178.571V52.5714ZM161.714 53.5714L161.714 35.7143L159.714 35.7143L159.714 53.5714L161.714 53.5714ZM160.714 34.7143H142.857V36.7143H160.714V34.7143ZM142.857 34.7143H125V36.7143H142.857V34.7143ZM125 34.7143H107.143V36.7143H125V34.7143ZM107.143 34.7143L89.2857 34.7143L89.2857 36.7143L107.143 36.7143L107.143 34.7143ZM88.2857 35.7143V53.5714H90.2857V35.7143H88.2857ZM89.2857 52.5714H71.4286V54.5714H89.2857V52.5714ZM70.4286 53.5714V71.4286H72.4286V53.5714H70.4286ZM70.4286 71.4286V89.2857H72.4286V71.4286H70.4286ZM70.4286 89.2857V107.143H72.4286V89.2857H70.4286ZM70.4286 107.143V125H72.4286V107.143H70.4286ZM71.4286 126H89.2857V124H71.4286V126ZM88.2857 125L88.2857 142.857L90.2857 142.857L90.2857 125L88.2857 125ZM0 322.429H17.8571V320.429H0V322.429ZM-1 303.571V321.429H1V303.571H-1ZM-1 285.714V303.571H1V285.714H-1ZM-1 267.857V285.714H1V267.857H-1ZM-1 250V267.857H1V250H-1ZM-1 232.143V250H1V232.143H-1ZM-1 214.286V232.143H1V214.286H-1ZM-1 196.429V214.286H1V196.429H-1ZM17.8571 195.429H0V197.429H17.8571V195.429ZM35.7143 195.429H17.8571V197.429H35.7143V195.429ZM53.5714 195.429H35.7143V197.429H53.5714V195.429ZM71.4286 195.429H53.5714V197.429H71.4286V195.429ZM89.2857 195.429H71.4286V197.429H89.2857V195.429ZM107.143 195.429H89.2857V197.429H107.143V195.429ZM125 195.429H107.143V197.429H125V195.429ZM142.857 195.429H125V197.429H142.857V195.429ZM160.714 195.429H142.857V197.429H160.714V195.429ZM178.571 195.429H160.714V197.429H178.571V195.429ZM196.429 195.429H178.571V197.429H196.429V195.429ZM214.286 195.429H196.429V197.429H214.286V195.429ZM232.143 195.429H214.286V197.429H232.143V195.429ZM250 195.429H232.143V197.429H250V195.429ZM251 214.286V196.429H249V214.286H251ZM251 232.143V214.286H249V232.143H251ZM251 250V232.143H249V250H251ZM251 267.857V250H249V267.857H251ZM251 285.714V267.857H249V285.714H251ZM251 303.571V285.714H249V303.571H251ZM251 321.429V303.571H249V321.429H251ZM232.143 322.429H250V320.429H232.143V322.429ZM214.286 322.429H232.143V320.429H214.286V322.429ZM213.286 303.571V321.429H215.286V303.571H213.286ZM213.286 285.714V303.571H215.286V285.714H213.286ZM213.286 267.857V285.714H215.286V267.857H213.286ZM213.286 250V267.857H215.286V250H213.286ZM213.286 232.143V250H215.286V232.143H213.286ZM196.429 233.143H214.286V231.143H196.429V233.143ZM178.571 233.143H196.429V231.143H178.571V233.143ZM160.714 233.143H178.571V231.143H160.714V233.143ZM142.857 233.143H160.714V231.143H142.857V233.143ZM125 233.143H142.857V231.143H125V233.143ZM107.143 233.143H125V231.143H107.143V233.143ZM89.2857 233.143H107.143V231.143H89.2857V233.143ZM71.4286 233.143H89.2857V231.143H71.4286V233.143ZM53.5714 233.143H71.4286V231.143H53.5714V233.143ZM35.7143 233.143L53.5714 233.143L53.5714 231.143L35.7143 231.143L35.7143 233.143ZM36.7143 250V232.143H34.7143V250H36.7143ZM36.7143 267.857V250H34.7143V267.857H36.7143ZM36.7143 285.714V267.857H34.7143V285.714H36.7143ZM36.7143 303.571V285.714H34.7143V303.571H36.7143ZM36.7143 321.429V303.571H34.7143V321.429H36.7143ZM17.8571 322.429H35.7143V320.429H17.8571V322.429Z" fill="#70B0FC" mask="url(#path-1-inside-1_22_975)"/>
</svg>
