<svg width="302" height="321" viewBox="0 0 302 321" fill="none" xmlns="http://www.w3.org/2000/svg">
<path fill-rule="evenodd" clip-rule="evenodd" d="M135.9 0H151H166.1V16.05H181.2V32.1H196.3V48.15L211.4 48.15L211.4 32.1H226.5H241.6V48.15H256.7V64.2H271.8V80.25V96.3H256.7V112.35L271.8 112.35V128.4H286.9V144.45H302V160.5V176.55H286.9V192.6H271.8V208.65H256.7V224.7H271.8V240.75V256.8H256.7V272.85H241.6V288.9H226.5H211.4V272.85L196.3 272.85V288.9L181.2 288.9V304.95H166.1V321H151H135.9V304.95H120.8V288.9L105.7 288.9V272.85L90.6 272.85V288.9H75.5H60.4V272.85H45.3L45.3 256.8H30.2V240.75V224.7H45.3L45.3 208.65H30.2V192.6H15.1V176.55H0V160.5V144.45H15.1V128.4H30.2V112.35L45.3 112.35V96.3H30.2V80.25V64.2H45.3V48.15H60.4V32.1H75.5H90.6V48.15L105.7 48.15V32.1H120.8V16.05H135.9V0ZM75.5 240.75V224.7V208.65V192.6H60.4V176.55H45.3V160.5L45.3 144.45H60.4V128.4H75.5V112.35V96.3V80.25H90.6H105.7H120.8V64.2H135.9V48.15H151H166.1V64.2H181.2L181.2 80.25H196.3H211.4H226.5V96.3V112.35V128.4H241.6V144.45H256.7V160.5V176.55H241.6V192.6H226.5V208.65V224.7V240.75H211.4H196.3H181.2L181.2 256.8H166.1V272.85H151H135.9V256.8H120.8V240.75H105.7L90.6 240.75H75.5ZM151 112.35H135.9H120.8L120.8 128.4H105.7V144.45V160.5V176.55V192.6H120.8V208.65H135.9H151H166.1H181.2V192.6H196.3V176.55V160.5V144.45V128.4H181.2V112.35H166.1H151ZM135.9 176.55H151H166.1V160.5L166.1 144.45H151H135.9V160.5V176.55Z" fill="black"/>
</svg>
